<?xml version="1.0" encoding="UTF-8"?>
<svg version="1.1" xmlns="http://www.w3.org/2000/svg" width="1020" height="360">
<path d="M0 0 C336.6 0 673.2 0 1020 0 C1020 118.8 1020 237.6 1020 360 C683.4 360 346.8 360 0 360 C0 241.2 0 122.4 0 0 Z " fill="#F9F9F9" transform="translate(0,0)"/>
<path d="M0 0 C0.84604797 -0.00671722 1.69209595 -0.01343445 2.56378174 -0.02035522 C5.36061481 -0.03935115 8.15720799 -0.04326056 10.95410156 -0.04541016 C12.90220233 -0.05183819 14.85030214 -0.05856655 16.79840088 -0.06558228 C20.8838525 -0.07755989 24.96921955 -0.08126272 29.0546875 -0.08007812 C34.27788275 -0.07987519 39.50053237 -0.10714913 44.72359848 -0.14162254 C48.74890611 -0.1639152 52.77408308 -0.1679149 56.79944611 -0.16685867 C58.72428513 -0.16921215 60.6491279 -0.17802135 62.57390594 -0.19352341 C65.27361135 -0.21322636 67.97214883 -0.20732814 70.671875 -0.1953125 C71.4596936 -0.20655151 72.24751221 -0.21779053 73.0592041 -0.22937012 C79.63159626 -0.15542826 84.65681402 1.91800444 89.76660156 6.04443359 C94.38302512 11.33503782 96.63302475 16.58804614 98.59472656 23.29052734 C98.89378906 24.28310547 99.19285156 25.27568359 99.50097656 26.29833984 C100.70881592 30.49222651 101.59472656 33.89505146 101.59472656 38.29052734 C102.56802792 38.28868376 103.54132927 38.28684017 104.5441246 38.28494072 C128.25704167 38.24048684 151.96995331 38.20764983 175.68290329 38.186903 C187.15043369 38.17660261 198.61793652 38.16256595 210.08544922 38.13964844 C220.0837564 38.11967667 230.08204361 38.10680192 240.08037019 38.10235035 C245.3714535 38.09974939 250.66247967 38.0936618 255.95354462 38.07906723 C260.94063711 38.06542346 265.9276493 38.06131838 270.91475868 38.06431198 C272.73836263 38.06376485 274.56196945 38.0598281 276.38555717 38.05211639 C303.22508213 37.94424831 303.22508213 37.94424831 310.29003906 44.65771484 C314.96838684 50.51265308 314.02406355 57.13581669 313.59472656 64.29052734 C312.95035188 69.07550756 311.99556266 73.76162976 310.96972656 78.47802734 C310.69231442 79.80145782 310.41597121 81.12511276 310.140625 82.44897461 C308.22285261 91.60841328 306.20039819 100.74682269 304.13183594 109.87329102 C302.39113374 117.58235353 300.74526833 125.30744194 299.13378906 133.04443359 C298.69084288 135.16172082 298.24780826 137.27898954 297.8046875 139.39624023 C297.14080278 142.56919735 296.47957642 145.74257925 295.82727051 148.91793823 C289.4278512 180.05853433 289.4278512 180.05853433 280.59472656 187.29052734 C272.96505889 191.94718074 264.67298141 191.91015277 256.02807617 191.81201172 C253.79591999 191.79065834 251.56701658 191.81184539 249.33496094 191.83740234 C233.35210338 191.86972919 219.93870963 187.59332223 208.21972656 176.29052734 C199.59472656 167.15086685 199.59472656 167.15086685 199.59472656 162.29052734 C201.37363281 162.25185547 201.37363281 162.25185547 203.18847656 162.21240234 C223.99545934 161.56792871 241.41880687 157.08368708 257.59472656 143.29052734 C258.62597656 142.52740234 259.65722656 141.76427734 260.71972656 140.97802734 C271.18846892 131.19202905 276.49971128 118.17377084 277.03222656 104.04052734 C276.91076423 95.33861899 274.48645122 87.91170161 269.34472656 80.85302734 C260.21672607 72.34739052 249.1315558 69.72890726 236.96972656 69.85302734 C235.91156738 69.86205078 234.8534082 69.87107422 233.76318359 69.88037109 C215.3227862 70.28559271 200.30851153 76.87466104 187.00097656 89.65380859 C177.89895666 99.62761287 173.50021132 111.10256704 171.59472656 124.29052734 C172.14257812 124.40009766 172.69042969 124.50966797 173.25488281 124.62255859 C176.68343099 125.30826823 180.11197917 125.99397786 183.54052734 126.6796875 C184.21970215 126.81552246 184.89887695 126.95135742 185.59863281 127.09130859 C189.2639974 127.82438151 192.92936198 128.55745443 196.59472656 129.29052734 C196.63597656 128.19740234 196.67722656 127.10427734 196.71972656 125.97802734 C198.03183067 115.94220407 204.81596224 107.36953133 212.59472656 101.29052734 C222.88857223 95.14011641 232.06660765 92.58490356 244.03222656 94.97802734 C247.47008168 96.73887997 249.33973712 98.10701284 251.59472656 101.29052734 C253.00109233 107.67588161 251.46770232 113.2965902 248.32519531 118.90380859 C241.00818486 128.99566726 229.20540038 133.65195403 217.32958984 135.89794922 C212.56548262 136.58181678 207.83836504 136.62951174 203.03222656 136.60302734 C201.98518555 136.59883789 200.93814453 136.59464844 199.859375 136.59033203 C181.81616978 136.3307573 161.36343278 133.00565414 147.54394531 120.42333984 C144.87898008 117.45944056 143.37788444 115.24074126 142.59472656 111.29052734 C146.11528573 111.88137138 149.02833878 112.80608155 152.23925781 114.35693359 C153.08037109 114.75976562 153.92148438 115.16259766 154.78808594 115.57763672 C155.65240234 115.99851562 156.51671875 116.41939453 157.40722656 116.85302734 C158.29087891 117.27777344 159.17453125 117.70251953 160.08496094 118.14013672 C162.25736994 119.18524159 164.42712614 120.23549496 166.59472656 121.29052734 C165.14682642 108.71324548 161.56533202 99.43552899 151.59472656 91.29052734 C140.12461406 82.80578659 126.33657235 80.61905577 112.59472656 78.29052734 C115.82557896 91.79272995 119.0888407 105.28058003 123.21972656 118.54052734 C123.48406494 119.41273926 123.74840332 120.28495117 124.02075195 121.18359375 C126.57255927 129.14485903 130.29078033 135.70293864 136.59472656 141.29052734 C137.21992188 141.84611328 137.84511719 142.40169922 138.48925781 142.97412109 C145.19856138 148.59542949 152.61481268 152.14383665 161.15722656 154.11083984 C166.8444325 155.56941206 171.02887741 156.85475031 174.16503906 162.00146484 C175.73191814 164.93450297 177.11593899 167.93843111 178.49707031 170.96240234 C181.51889234 177.5319555 186.10995704 182.9916122 191.35253906 187.95458984 C192.59472656 189.29052734 192.59472656 189.29052734 192.59472656 191.29052734 C191.7669294 191.29599579 191.7669294 191.29599579 190.92240906 191.30157471 C185.12974333 191.34368993 179.33784871 191.413234 173.5456543 191.49804688 C171.38980863 191.5261098 169.23386288 191.54739662 167.07788086 191.56152344 C163.96188655 191.58315728 160.84707722 191.62991091 157.73144531 191.68115234 C156.30731575 191.6829953 156.30731575 191.6829953 154.85441589 191.68487549 C146.9620264 191.85401262 139.02807656 193.33624944 132.90722656 198.60302734 C131.1833012 202.13296975 131.03029161 204.41003704 131.59472656 208.29052734 C133.68907177 211.03826566 134.87153919 212.15718718 138.303442 212.78995609 C139.34649309 212.78974681 140.38954418 212.78953753 141.46420288 212.7893219 C143.26428047 212.8036879 143.26428047 212.8036879 145.10072327 212.81834412 C146.4140715 212.80860062 147.72741974 212.79885712 149.08056641 212.78881836 C150.48027626 212.79264214 151.8799822 212.79826168 153.27967834 212.80554199 C156.29232374 212.817493 159.30462062 212.81700312 162.31727219 212.80694771 C167.08286834 212.79138688 171.84810658 212.80506529 176.61367798 212.82298279 C185.87203937 212.8538095 195.13029154 212.85530401 204.38869476 212.85333252 C216.16623341 212.85193997 227.94368775 212.86230778 239.72116435 212.90191025 C244.45634279 212.9168333 249.19120433 212.91658151 253.92638755 212.90443242 C256.87558771 212.89971544 259.82466707 212.90725073 262.77384758 212.91797638 C264.78846359 212.92152238 266.80308862 212.91011657 268.81767273 212.89823914 C270.02336411 212.90499664 271.22905548 212.91175415 272.47128296 212.91871643 C273.5150881 212.91813012 274.55889324 212.91754381 275.63432884 212.91693974 C280.21969193 213.49558997 283.51052783 215.34898634 286.96972656 218.35302734 C289.35157495 222.65867636 289.48738503 226.48094507 288.59472656 231.29052734 C286.92192784 234.64298053 284.69082027 236.74482631 281.30585766 238.43006325 C278.20351619 239.41469046 275.65840195 239.54786454 272.40412903 239.55795288 C270.53493301 239.57074783 270.53493301 239.57074783 268.62797546 239.58380127 C267.25466906 239.5831023 265.88136276 239.58217926 264.50805664 239.58105469 C263.05557917 239.58704198 261.60310489 239.593848 260.15063477 239.60140991 C256.21028537 239.61906085 252.27002288 239.62376502 248.32963777 239.62504148 C245.86461821 239.62646464 243.39962064 239.63073743 240.93460655 239.63603592 C232.32544939 239.65453616 223.71635411 239.66270691 215.10717773 239.66113281 C207.09840265 239.65993277 199.08989766 239.68100812 191.08119088 239.71262014 C184.19350449 239.73883251 177.305906 239.74949797 170.41817015 239.74822199 C166.30981461 239.74771363 162.20169893 239.75332611 158.09339333 239.77457809 C154.2248296 239.79404333 150.35673241 239.794029 146.48815155 239.77954483 C145.07490286 239.77746555 143.66162434 239.78210474 142.24842644 239.79426575 C132.27354036 239.87448487 124.75153637 238.6622876 116.34472656 233.16552734 C108.72561917 225.20009689 105.09588146 216.20304515 105.26269531 205.20849609 C105.73144498 201.0890137 107.05285628 197.51966686 108.62207031 193.70068359 C110.5673843 188.88036741 110.57612396 186.21799138 109.29052734 181.08959961 C108.97880585 179.82648956 108.66708435 178.56337952 108.34591675 177.26199341 C107.9941189 175.87693247 107.64215495 174.49191371 107.29003906 173.10693359 C106.93129826 171.66727265 106.57341459 170.22739789 106.21633911 168.787323 C105.25937772 164.93721629 104.29128207 161.08998947 103.32118225 157.24317551 C102.31659226 153.25099624 101.32260631 149.25618178 100.328125 145.26147461 C98.95870325 139.76346223 97.58677159 134.26609228 96.21094513 128.76967907 C93.87696498 119.44340176 91.58469117 110.10777496 89.33468628 100.76086426 C87.76955458 94.26715184 86.1819103 87.77887776 84.59472656 81.29052734 C84.34273499 80.26004272 84.09074341 79.22955811 83.83111572 78.16784668 C82.07975321 71.01200438 80.3185804 63.85865511 78.54797363 56.70755005 C77.95769162 54.31889788 77.36985182 51.92964077 76.7845459 49.5397644 C75.9688538 46.21149843 75.14423613 42.88556662 74.31738281 39.56005859 C74.07196243 38.55059174 73.82654205 37.54112488 73.57368469 36.50106812 C73.34223251 35.57798859 73.11078033 34.65490906 72.87231445 33.70385742 C72.67295792 32.89612381 72.47360138 32.0883902 72.26820374 31.25617981 C71.68680631 29.08944623 71.68680631 29.08944623 69.59472656 27.29052734 C67.10191211 27.10461503 64.71971712 27.0417548 62.22680664 27.06689453 C61.46722656 27.06648666 60.70764648 27.0660788 59.92504883 27.06565857 C58.2722765 27.06546074 56.61949954 27.06951163 54.96674538 27.07726288 C52.34751707 27.08746757 49.72876623 27.08211838 47.10954285 27.07183838 C39.66140473 27.04383379 32.21353139 27.03131501 24.76538086 27.06054688 C20.21106528 27.07730313 15.65759987 27.06491453 11.10336876 27.03409576 C9.37031091 27.02800087 7.63717778 27.03283643 5.90418434 27.04897308 C-9.37791731 27.18525898 -9.37791731 27.18525898 -13.96118164 23.36962891 C-17.47376042 18.94443227 -17.80489019 16.37965926 -17.75683594 10.83740234 C-17.18143125 6.66891506 -15.49161881 5.09629586 -12.40527344 2.29052734 C-8.59624612 -0.342272 -4.45424751 -0.0050724 0 0 Z " fill="#4CB071" transform="translate(46.4052734375,24.70947265625)"/>
<path d="M0 0 C7.42013498 4.71676263 12.22337767 10.08529645 16 18 C16.33902344 18.68449219 16.67804688 19.36898437 17.02734375 20.07421875 C20.85176845 29.32685915 20.23481802 40.65495124 16.9375 49.9375 C12.53688528 59.86961367 6.91627928 66.34914875 -3 71 C-6.87090219 72.3518769 -10.93819675 72.33251578 -15 72.4375 C-15.69222656 72.48326172 -16.38445313 72.52902344 -17.09765625 72.57617188 C-24.32064243 72.72692386 -29.82565868 69.46914926 -36 66 C-36.01458252 66.89307861 -36.02916504 67.78615723 -36.04418945 68.70629883 C-36.10527077 72.02217278 -36.17942478 75.33721899 -36.26245117 78.65258789 C-36.29569001 80.08704628 -36.32372535 81.52163513 -36.34643555 82.95629883 C-36.38000271 85.01960807 -36.43231413 87.08172303 -36.48828125 89.14453125 C-36.51446533 90.38565674 -36.54064941 91.62678223 -36.56762695 92.90551758 C-37 96 -37 96 -38.32885742 97.90576172 C-41.09305338 99.71571443 -43.75913731 99.35638668 -47 99.3125 C-48.2375 99.30863281 -49.475 99.30476563 -50.75 99.30078125 C-54 99 -54 99 -57 97 C-57.29665143 93.93093687 -57.39877212 91.06357698 -57.37231445 87.9921875 C-57.37596512 87.05876526 -57.37961578 86.12534302 -57.38337708 85.16363525 C-57.3915066 82.06724046 -57.37785247 78.97136505 -57.36328125 75.875 C-57.36276293 73.73030599 -57.36327953 71.58561151 -57.36479187 69.44091797 C-57.36470204 64.94165982 -57.35425035 60.44258045 -57.33618164 55.94335938 C-57.31349417 50.16588838 -57.31294923 44.38867881 -57.31969929 38.61117554 C-57.32303515 34.18120994 -57.3164164 29.75130433 -57.30657005 25.3213501 C-57.30271115 23.19061598 -57.30157268 21.0598752 -57.3031559 18.92913818 C-57.3035253 15.9552328 -57.29094147 12.98166704 -57.2746582 10.0078125 C-57.27713562 9.12047424 -57.27961304 8.23313599 -57.28216553 7.31890869 C-57.22873966 1.22873966 -57.22873966 1.22873966 -55 -1 C-52.25514407 -1.14507695 -49.61519457 -1.18652423 -46.875 -1.125 C-46.12089844 -1.11597656 -45.36679687 -1.10695312 -44.58984375 -1.09765625 C-42.72642746 -1.0740687 -40.86317407 -1.03819719 -39 -1 C-38.34 0.98 -37.68 2.96 -37 5 C-36.38125 4.4225 -35.7625 3.845 -35.125 3.25 C-24.95725998 -4.07077282 -11.35360771 -6.02146695 0 0 Z " fill="#222C3D" transform="translate(676,166)"/>
<path d="M0 0 C2.63310838 1.44869903 4.90522973 3.10633942 7.1015625 5.15625 C7.4109375 4.351875 7.7203125 3.5475 8.0390625 2.71875 C9.1015625 0.15625 9.1015625 0.15625 10.1015625 -0.84375 C12.59215164 -0.94372642 15.04883645 -0.98254627 17.5390625 -0.96875 C18.23322266 -0.97261719 18.92738281 -0.97648438 19.64257812 -0.98046875 C24.84828262 -0.97038994 24.84828262 -0.97038994 27.1015625 0.15625 C27.12468816 9.13545777 27.14247873 18.11465537 27.15337467 27.09388638 C27.15860301 31.26287828 27.16569976 35.43184987 27.17700195 39.60083008 C27.18783258 43.62082686 27.19383971 47.64080405 27.19643974 51.66081429 C27.19829368 53.19787975 27.20191369 54.73494409 27.20729256 56.27200127 C27.21450534 58.41760487 27.21555334 60.56312655 27.21508789 62.70874023 C27.2173085 63.93229721 27.21952911 65.15585419 27.22181702 66.41648865 C27.1015625 69.15625 27.1015625 69.15625 26.1015625 70.15625 C24.75888837 70.24256874 23.41181928 70.26331473 22.06640625 70.25390625 C21.25751953 70.25068359 20.44863281 70.24746094 19.61523438 70.24414062 C18.76509766 70.23576172 17.91496094 70.22738281 17.0390625 70.21875 C16.18505859 70.21423828 15.33105469 70.20972656 14.45117188 70.20507812 C12.33460587 70.19325373 10.21807565 70.17531769 8.1015625 70.15625 C8.1015625 68.17625 8.1015625 66.19625 8.1015625 64.15625 C7.4415625 64.15625 6.7815625 64.15625 6.1015625 64.15625 C5.6065625 65.64125 5.6065625 65.64125 5.1015625 67.15625 C3.39453125 68.2890625 3.39453125 68.2890625 1.2890625 69.28125 C0.25845703 69.78011719 0.25845703 69.78011719 -0.79296875 70.2890625 C-8.52275564 73.47275951 -18.96003169 73.54673547 -26.9921875 71.28515625 C-36.46333664 66.82728513 -42.081519 59.76287633 -45.8984375 50.15625 C-49.2360901 40.31957666 -49.64826524 28.45945581 -45.9609375 18.65625 C-41.08575186 8.78262965 -34.1422285 2.13172846 -23.8984375 -1.84375 C-15.99655575 -4.47771058 -7.47030652 -3.40665444 0 0 Z " fill="#222C3D" transform="translate(829.8984375,165.84375)"/>
<path d="M0 0 C8.29711461 5.30599179 14.21252004 12.72938801 16.8125 22.3125 C18.45276902 34.30067554 16.73467193 45.15492518 9.625 55.125 C3.56415985 62.34890116 -4.65746065 67.62592117 -14.16357422 68.49267578 C-27.80126405 69.33428504 -39.43778355 67.40356879 -50.1875 58.3125 C-57.40993075 50.68703182 -60.94626542 41.95092994 -60.8125 31.5 C-60.80428223 30.19276978 -60.80428223 30.19276978 -60.79589844 28.85913086 C-60.47648675 18.96195791 -56.60102861 11.72585626 -50.1875 4.3125 C-35.31067476 -7.9883769 -16.7851159 -9.23558851 0 0 Z " fill="#222C3D" transform="translate(509.1875,169.6875)"/>
<path d="M0 0 C7.90411889 5.53533792 12.70439308 12.46967423 16.375 21.3125 C18.28084776 32.5570018 17.36568888 42.90673431 11.3125 52.6875 C5.34721418 60.95722387 -1.98893215 66.55405261 -12 69 C-21.9652339 70.20513852 -32.14376698 70.18107559 -41 65 C-42.051875 64.401875 -43.10375 63.80375 -44.1875 63.1875 C-52.63743521 56.61532817 -58.79123352 49.0845462 -60.71484375 38.30859375 C-62.12039164 26.92943209 -59.4571681 17.43967366 -52.75 8.06640625 C-40.13646285 -6.82770346 -16.60310222 -10.33920456 0 0 Z " fill="#222C3D" transform="translate(593,169)"/>
<path d="M0 0 C0.89460937 -0.00128906 1.78921875 -0.00257813 2.7109375 -0.00390625 C3.65195312 -0.00003906 4.59296875 0.00382813 5.5625 0.0078125 C6.97402344 0.00201172 6.97402344 0.00201172 8.4140625 -0.00390625 C9.75597656 -0.00197266 9.75597656 -0.00197266 11.125 0 C11.95128906 0.00112793 12.77757812 0.00225586 13.62890625 0.00341797 C15.5625 0.1328125 15.5625 0.1328125 16.5625 1.1328125 C16.72246166 3.72434357 16.82188697 6.2923327 16.87890625 8.88671875 C16.89968735 9.66216537 16.92046844 10.437612 16.94187927 11.23655701 C17.00745802 13.72271558 17.06629799 16.20898295 17.125 18.6953125 C17.16817733 20.37696454 17.21179136 22.05860544 17.25585938 23.74023438 C17.36314779 27.87098121 17.46439132 32.00183786 17.5625 36.1328125 C25.53774716 26.98661569 25.53774716 26.98661569 33.1875 17.5703125 C33.73664062 16.8896875 34.28578125 16.2090625 34.8515625 15.5078125 C36.71231823 13.03613245 36.71231823 13.03613245 38.3984375 9.6953125 C40.60103587 5.85006337 42.64407705 2.39592162 46.5625 0.1328125 C54.08872599 -1.47314531 61.96806009 -0.66955081 69.5625 0.1328125 C68.86305625 4.20120186 68.08080519 6.08843674 65.1875 9.0703125 C61.710311 12.81307722 58.50100229 16.66163354 55.375 20.6953125 C49.22566477 28.60724498 42.90166116 36.37263111 36.5625 44.1328125 C38.00418976 48.57191374 40.45035469 51.63583225 43.5 55.0703125 C47.93244007 60.18258365 52.19765179 65.38668592 56.33862305 70.73754883 C58.82455786 73.94343677 61.3529534 77.09987756 63.95703125 80.2109375 C64.51656494 80.88656738 65.07609863 81.56219727 65.65258789 82.25830078 C66.73924668 83.56727791 67.83577952 84.86813552 68.94311523 86.15966797 C70.421875 87.953125 70.421875 87.953125 72.5625 91.1328125 C72.19628906 93.33154297 72.19628906 93.33154297 71.5625 95.1328125 C51.75023436 97.65203933 51.75023436 97.65203933 45.32714844 93.78808594 C41.43877269 90.19271181 38.68060337 85.83383099 35.94628906 81.33105469 C33.77456308 77.88112159 31.19880762 74.78689834 28.625 71.6328125 C24.85327669 66.86258674 21.19753615 62.00768775 17.5625 57.1328125 C17.53744385 58.24841553 17.5123877 59.36401855 17.48657227 60.51342773 C17.39266579 64.6377384 17.29240486 68.761874 17.19018555 72.88598633 C17.146773 74.6737052 17.10510271 76.46146724 17.06518555 78.24926758 C17.0076354 80.81344641 16.94389797 83.37740662 16.87890625 85.94140625 C16.85383751 87.14765907 16.85383751 87.14765907 16.82826233 88.37828064 C16.67637171 94.01894079 16.67637171 94.01894079 15.5625 95.1328125 C14.08597336 95.23162047 12.60482764 95.26360495 11.125 95.265625 C9.78308594 95.26755859 9.78308594 95.26755859 8.4140625 95.26953125 C7.00253906 95.26373047 7.00253906 95.26373047 5.5625 95.2578125 C4.15097656 95.26361328 4.15097656 95.26361328 2.7109375 95.26953125 C1.81632813 95.26824219 0.92171875 95.26695312 0 95.265625 C-0.82628906 95.26449707 -1.65257812 95.26336914 -2.50390625 95.26220703 C-4.4375 95.1328125 -4.4375 95.1328125 -5.4375 94.1328125 C-5.53806691 91.24675234 -5.57365375 88.38458675 -5.56689453 85.49804688 C-5.56864685 84.59242508 -5.57039917 83.68680328 -5.57220459 82.7537384 C-5.57662454 79.74466057 -5.57368461 76.73564098 -5.5703125 73.7265625 C-5.5709855 71.64530425 -5.57195549 69.56404607 -5.57321167 67.48278809 C-5.57468884 63.11465712 -5.57253348 58.74654657 -5.56787109 54.37841797 C-5.5621738 48.76566697 -5.5654527 43.15296378 -5.57144356 37.54021454 C-5.57504866 33.24069861 -5.57391082 28.94119412 -5.57131577 24.64167786 C-5.57064636 22.57151789 -5.5714754 20.5013569 -5.57379532 18.43119812 C-5.57632102 15.54329664 -5.57248242 12.65547372 -5.56689453 9.76757812 C-5.56891876 8.90312576 -5.57094299 8.0386734 -5.57302856 7.14802551 C-5.54729538 0.00757236 -5.54729538 0.00757236 0 0 Z " fill="#222D3E" transform="translate(710.4375,140.8671875)"/>
<path d="M0 0 C7.40266158 5.8884808 11.98511806 12.83429694 13.1328125 22.3671875 C13.46545139 31.79195615 11.48805183 39.11373074 5.5625 46.5 C-1.13741302 53.63309705 -8.67315263 56.29579587 -18.25 56.625 C-26.8277809 56.70144708 -33.68113274 54.14718496 -40.18359375 48.51171875 C-47.19485324 40.90598838 -49.66019267 32.26833434 -49.5234375 22.09375 C-48.72133667 13.56856398 -44.48399262 6.87665181 -38.25 1.1875 C-25.76622934 -8.47022021 -13.18750236 -7.35456862 0 0 Z " fill="#4BB071" transform="translate(206.25,278.8125)"/>
<path d="M0 0 C9.19236002 4.87731193 14.507886 11.74240801 17.74609375 21.45703125 C18.58057286 33.04345269 17.1789406 41.41281449 9.70703125 50.4453125 C3.28941318 57.02912387 -4.3868606 59.73240805 -13.50390625 59.89453125 C-20.59990985 59.79703954 -25.4140861 58.43074345 -31.25390625 54.45703125 C-31.8365625 54.07289063 -32.41921875 53.68875 -33.01953125 53.29296875 C-39.13915203 48.74961393 -42.89855021 41.84988239 -44.25390625 34.45703125 C-45.18636558 24.3434339 -43.53144922 16.3110476 -37.25390625 8.20703125 C-27.44139373 -2.30942238 -13.08947149 -5.25435522 0 0 Z " fill="#4BB071" transform="translate(307.25390625,275.54296875)"/>
<path d="M0 0 C0.89460938 -0.00128906 1.78921875 -0.00257813 2.7109375 -0.00390625 C3.65195312 -0.00003906 4.59296875 0.00382813 5.5625 0.0078125 C6.97402344 0.00201172 6.97402344 0.00201172 8.4140625 -0.00390625 C9.75597656 -0.00197266 9.75597656 -0.00197266 11.125 0 C11.95128906 0.00112793 12.77757812 0.00225586 13.62890625 0.00341797 C15.5625 0.1328125 15.5625 0.1328125 16.5625 1.1328125 C16.65693335 3.43335085 16.67992128 5.73683423 16.67602539 8.03930664 C16.67617142 8.76121689 16.67631744 9.48312714 16.6764679 10.22691345 C16.67576869 12.62396197 16.66797595 15.02093373 16.66015625 17.41796875 C16.6582921 19.07563739 16.65686818 20.73330657 16.65586853 22.39097595 C16.65204312 26.76235464 16.64221265 31.13370031 16.63116455 35.50506592 C16.62095092 39.96235711 16.61637101 44.41965361 16.61132812 48.87695312 C16.6005904 57.62892143 16.58351371 66.38086286 16.5625 75.1328125 C17.55169434 75.12233887 18.54088867 75.11186523 19.56005859 75.10107422 C23.22392164 75.06492231 26.88776886 75.04192968 30.55175781 75.02294922 C32.13869883 75.01288062 33.72562125 74.99922483 35.3125 74.98193359 C37.59119247 74.95772249 39.86964006 74.94633828 42.1484375 74.9375 C42.85994965 74.92717743 43.57146179 74.91685486 44.30453491 74.90621948 C46.05881665 74.90581828 47.81246709 75.01079041 49.5625 75.1328125 C51.5625 77.1328125 51.5625 77.1328125 51.79296875 81.01171875 C51.78897576 82.57297726 51.77421261 84.13423664 51.75 85.6953125 C51.74935547 86.48873047 51.74871094 87.28214844 51.74804688 88.09960938 C51.70275522 93.99255728 51.70275522 93.99255728 50.5625 95.1328125 C48.84931054 95.23162843 47.13205197 95.26080219 45.41601562 95.26220703 C44.31817749 95.26535919 43.22033936 95.26851135 42.0892334 95.27175903 C40.89447388 95.2697348 39.69971436 95.26771057 38.46875 95.265625 C37.25175415 95.26658173 36.0347583 95.26753845 34.78088379 95.26852417 C32.20174101 95.26920622 29.62259653 95.26735022 27.04345703 95.26318359 C23.07971364 95.25783572 19.11608358 95.26312779 15.15234375 95.26953125 C12.65364558 95.26887047 10.15494748 95.26758932 7.65625 95.265625 C5.86411072 95.26866135 5.86411072 95.26866135 4.0357666 95.27175903 C2.93792847 95.26860687 1.84009033 95.26545471 0.70898438 95.26220703 C-0.74876404 95.26101364 -0.74876404 95.26101364 -2.23596191 95.25979614 C-4.4375 95.1328125 -4.4375 95.1328125 -5.4375 94.1328125 C-5.53806691 91.24675234 -5.57365375 88.38458675 -5.56689453 85.49804688 C-5.56864685 84.59242508 -5.57039917 83.68680328 -5.57220459 82.7537384 C-5.57662454 79.74466057 -5.57368461 76.73564098 -5.5703125 73.7265625 C-5.5709855 71.64530425 -5.57195549 69.56404607 -5.57321167 67.48278809 C-5.57468884 63.11465712 -5.57253348 58.74654657 -5.56787109 54.37841797 C-5.5621738 48.76566697 -5.5654527 43.15296378 -5.57144356 37.54021454 C-5.57504866 33.24069861 -5.57391082 28.94119412 -5.57131577 24.64167786 C-5.57064636 22.57151789 -5.5714754 20.5013569 -5.57379532 18.43119812 C-5.57632102 15.54329664 -5.57248242 12.65547372 -5.56689453 9.76757812 C-5.56891876 8.90312576 -5.57094299 8.0386734 -5.57302856 7.14802551 C-5.54729538 0.00757236 -5.54729538 0.00757236 0 0 Z " fill="#222D3E" transform="translate(394.4375,140.8671875)"/>
<path d="M0 0 C0.78503906 0.00773438 1.57007813 0.01546875 2.37890625 0.0234375 C3.16394531 0.01570312 3.94898438 0.00796875 4.7578125 0 C10.62559838 0.02012963 10.62559838 0.02012963 12.87890625 2.2734375 C13.02408369 5.1827933 13.06521421 7.9933835 13.00390625 10.8984375 C12.99488281 11.70023438 12.98585938 12.50203125 12.9765625 13.328125 C12.95296848 15.31002273 12.9170969 17.29176731 12.87890625 19.2734375 C14.01070312 19.25023437 15.1425 19.22703125 16.30859375 19.203125 C17.790358 19.18436849 19.27212937 19.16616816 20.75390625 19.1484375 C21.50027344 19.13167969 22.24664063 19.11492187 23.015625 19.09765625 C24.97085086 19.0800416 26.92632646 19.17023561 28.87890625 19.2734375 C30.87890625 21.2734375 30.87890625 21.2734375 31.14453125 24.4609375 C31.139375 25.7190625 31.13421875 26.9771875 31.12890625 28.2734375 C31.13664063 30.160625 31.13664063 30.160625 31.14453125 32.0859375 C30.87890625 35.2734375 30.87890625 35.2734375 28.87890625 37.2734375 C26.13405032 37.41851445 23.49410082 37.45996173 20.75390625 37.3984375 C19.99980469 37.38941406 19.24570312 37.38039062 18.46875 37.37109375 C16.60533371 37.3475062 14.74208032 37.31163469 12.87890625 37.2734375 C12.97265426 41.47304354 13.0787943 45.67210062 13.19628906 49.87109375 C13.23450649 51.29874148 13.26937197 52.72648313 13.30078125 54.15429688 C13.34659026 56.20997618 13.40455605 58.26501304 13.46484375 60.3203125 C13.5119751 62.17414551 13.5119751 62.17414551 13.56005859 64.06542969 C13.85814884 67.06459185 14.2134939 68.79780462 15.87890625 71.2734375 C19.68532226 73.46501035 23.69153546 73.67876669 27.98828125 74.02734375 C29.87890625 74.2734375 29.87890625 74.2734375 30.87890625 75.2734375 C31.00460128 77.3956373 31.05467398 79.52255095 31.06640625 81.6484375 C31.08058594 82.81117188 31.09476563 83.97390625 31.109375 85.171875 C30.87890625 88.2734375 30.87890625 88.2734375 28.87890625 91.2734375 C22.05991297 93.54643526 12.60573388 93.41528849 5.87890625 90.7734375 C0.48329183 87.85166139 -3.66553385 83.70782942 -6.07592773 78.02050781 C-8.5617442 69.5562403 -8.4634776 61.30716432 -8.30859375 52.5859375 C-8.2935082 51.09441467 -8.27982669 49.60287695 -8.26757812 48.11132812 C-8.23490532 44.49838262 -8.18334094 40.88600889 -8.12109375 37.2734375 C-9.39984375 37.3146875 -10.67859375 37.3559375 -11.99609375 37.3984375 C-14.17578125 37.46875 -14.17578125 37.46875 -16.12109375 37.2734375 C-18.12109375 35.2734375 -18.12109375 35.2734375 -18.38671875 32.0859375 C-18.3815625 30.8278125 -18.37640625 29.5696875 -18.37109375 28.2734375 C-18.37625 27.0153125 -18.38140625 25.7571875 -18.38671875 24.4609375 C-18.12109375 21.2734375 -18.12109375 21.2734375 -16.12109375 19.2734375 C-13.4326999 19.00351844 -10.82967439 19.18606393 -8.12109375 19.2734375 C-8.14429688 18.06945312 -8.1675 16.86546875 -8.19140625 15.625 C-8.21016238 14.04948535 -8.22836274 12.47396402 -8.24609375 10.8984375 C-8.26285156 10.104375 -8.27960937 9.3103125 -8.296875 8.4921875 C-8.31444848 6.41851735 -8.22444543 4.34460509 -8.12109375 2.2734375 C-5.49385551 -0.35380074 -3.57897702 0.01227779 0 0 Z " fill="#232D3E" transform="translate(936.12109375,145.7265625)"/>
<path d="M0 0 C1 1 1 1 1.11352539 2.76586914 C1.10828857 3.51473389 1.10305176 4.26359863 1.09765625 5.03515625 C1.09443359 5.84404297 1.09121094 6.65292969 1.08789062 7.48632812 C1.07532227 8.7615332 1.07532227 8.7615332 1.0625 10.0625 C1.05798828 10.91650391 1.05347656 11.77050781 1.04882812 12.65039062 C1.03700373 14.76695663 1.01906769 16.88348685 1 19 C0.27554688 19.02578125 -0.44890625 19.0515625 -1.1953125 19.078125 C-7.19154915 19.42990422 -11.37180736 19.82333835 -16 24 C-20.4593794 29.90566461 -21.16057809 34.34727506 -21.28125 41.5703125 C-21.29965942 42.40714569 -21.31806885 43.24397888 -21.33703613 44.10617065 C-21.4157582 47.68865127 -21.48365646 51.27131715 -21.55224609 54.85400391 C-21.60383248 57.46787213 -21.66111876 60.08157173 -21.71875 62.6953125 C-21.73232544 63.51194366 -21.74590088 64.32857483 -21.7598877 65.16995239 C-21.88714947 70.88714947 -21.88714947 70.88714947 -23 72 C-24.33043625 72.0983721 -25.66593344 72.13078592 -27 72.1328125 C-27.804375 72.13410156 -28.60875 72.13539063 -29.4375 72.13671875 C-30.283125 72.13285156 -31.12875 72.12898438 -32 72.125 C-32.845625 72.12886719 -33.69125 72.13273437 -34.5625 72.13671875 C-35.366875 72.13542969 -36.17125 72.13414062 -37 72.1328125 C-37.7425 72.13168457 -38.485 72.13055664 -39.25 72.12939453 C-41 72 -41 72 -42 71 C-42.10474558 68.89405572 -42.13856457 66.78456234 -42.14526367 64.67602539 C-42.14862228 64.01584915 -42.1519809 63.35567291 -42.15544128 62.67549133 C-42.16497695 60.48286075 -42.1668957 58.29030631 -42.16796875 56.09765625 C-42.17117955 54.5792996 -42.17454349 53.06094327 -42.17805481 51.54258728 C-42.18405265 48.35561404 -42.18589404 45.16866794 -42.18530273 41.98168945 C-42.18520108 37.891304 -42.19885343 33.80109203 -42.21607494 29.71074772 C-42.22717571 26.57355444 -42.22922254 23.43640334 -42.22869301 20.29919243 C-42.22987603 18.7908614 -42.23431575 17.28252939 -42.24202538 15.77421761 C-42.25178662 13.66714341 -42.24896282 11.56044902 -42.24291992 9.45336914 C-42.24434494 8.25281387 -42.24576996 7.05225861 -42.24723816 5.81532288 C-42 3 -42 3 -40 1 C-37.47207337 0.77444919 -35.08944424 0.67561409 -32.5625 0.6875 C-31.5405957 0.66333008 -31.5405957 0.66333008 -30.49804688 0.63867188 C-25.51104238 0.63378744 -25.51104238 0.63378744 -23.0703125 2.3828125 C-21.84670081 4.23162724 -21.37508606 5.82450083 -21 8 C-20.319375 7.236875 -19.63875 6.47375 -18.9375 5.6875 C-13.25635775 0.48985921 -7.49299662 -0.83612838 0 0 Z " fill="#202B3C" transform="translate(912,164)"/>
<path d="M0 0 C5.04467402 2.81937869 7.94606028 7.02568084 9.75 12.4375 C10.48727159 19.75350273 9.02002884 24.99331831 4.9375 31.1875 C0.85526166 35.38637372 -2.86488046 36.6427221 -8.625 36.9375 C-14.28056643 36.75282844 -18.1528162 35.38043688 -22.25 31.4375 C-26.43424457 26.3049847 -26.87673896 20.72935775 -26.6328125 14.2734375 C-25.88319548 8.7201522 -23.37059223 5.24487296 -19.1875 1.5625 C-13.37800113 -2.64011621 -6.52353472 -2.89659796 0 0 Z " fill="#F5F6F6" transform="translate(829.25,183.5625)"/>
<path d="M0 0 C5.18570025 3.01713469 9.51359715 7.22829145 11.4375 13 C12.04243596 19.00282609 11.425573 23.64207599 8.4375 29 C4.80986454 33.31394487 1.00889961 36.53109322 -4.734375 37.28515625 C-9.75070282 37.47873937 -13.33562593 36.91184658 -17.5625 34 C-22.68157511 29.13872003 -25.14910012 24.72059893 -25.9375 17.625 C-25.17908504 10.29365538 -21.8627041 5.71976594 -16.24609375 1.12890625 C-11.26274056 -2.21259972 -5.47585632 -1.53708247 0 0 Z " fill="#F6F6F6" transform="translate(494.5625,183)"/>
<path d="M0 0 C5.16748647 2.71972972 9.1158145 6.75369351 10.96875 12.3125 C11.91791973 24.96201198 11.91791973 24.96201198 7.96875 30.3125 C3.41111797 34.87013203 -0.11305754 37.4178799 -6.71875 37.6875 C-12.25367445 37.61477836 -15.97425583 36.07903962 -20.03125 32.3125 C-21.72002717 30.03142707 -22.80813715 27.90549925 -24.03125 25.3125 C-24.36125 24.6525 -24.69125 23.9925 -25.03125 23.3125 C-25.80615967 16.47805077 -25.07704557 10.96875789 -21.03125 5.3125 C-15.01402169 -0.4038669 -8.12689385 -2.750641 0 0 Z " fill="#F6F6F6" transform="translate(663.03125,182.6875)"/>
<path d="M0 0 C4.36037068 2.53325179 7.35129389 6.38591291 8.9296875 11.12109375 C9.64145887 17.98460337 9.7215972 23.82575675 5.45703125 29.49609375 C0.77424238 34.47829367 -2.9582798 35.37810735 -9.6328125 35.62109375 C-14.90666811 35.43965376 -18.16661865 34.92469288 -22.0703125 31.12109375 C-26.96677782 24.63658562 -28.03083407 19.11088679 -27.0703125 11.12109375 C-24.8904048 5.4458168 -21.41158893 2.02396138 -16.0703125 -0.87890625 C-10.47497536 -2.74401863 -5.38292442 -2.18877666 0 0 Z " fill="#F6F7F7" transform="translate(580.0703125,183.87890625)"/>
<path d="M0 0 C0.89460938 -0.00128906 1.78921875 -0.00257813 2.7109375 -0.00390625 C3.65195312 -0.00003906 4.59296875 0.00382813 5.5625 0.0078125 C6.97402344 0.00201172 6.97402344 0.00201172 8.4140625 -0.00390625 C9.75597656 -0.00197266 9.75597656 -0.00197266 11.125 0 C11.95128906 0.00112793 12.77757812 0.00225586 13.62890625 0.00341797 C15.5625 0.1328125 15.5625 0.1328125 16.5625 1.1328125 C16.65693335 3.43335085 16.67992128 5.73683423 16.67602539 8.03930664 C16.67617142 8.76121689 16.67631744 9.48312714 16.6764679 10.22691345 C16.67576869 12.62396197 16.66797595 15.02093373 16.66015625 17.41796875 C16.6582921 19.07563739 16.65686818 20.73330657 16.65586853 22.39097595 C16.65204312 26.76235464 16.64221265 31.13370031 16.63116455 35.50506592 C16.61915641 40.74548917 16.6145483 45.98592344 16.60871124 51.22635651 C16.5990009 59.19519816 16.57984452 67.16396732 16.5625 75.1328125 C27.4525 75.1328125 38.3425 75.1328125 49.5625 75.1328125 C49.5625 75.4628125 49.5625 75.7928125 49.5625 76.1328125 C38.0125 76.1328125 26.4625 76.1328125 14.5625 76.1328125 C13.09126636 73.19034523 13.44325235 70.58096228 13.44897461 67.29638672 C13.44882858 66.59383759 13.44868256 65.89128845 13.4485321 65.16744995 C13.44922986 62.84076877 13.45701581 60.51416723 13.46484375 58.1875 C13.46670842 56.57610111 13.46813209 54.96470166 13.46913147 53.353302 C13.4729528 49.10852498 13.48277982 44.86378208 13.49383545 40.61901855 C13.50405782 36.28898582 13.50863086 31.95894757 13.51367188 27.62890625 C13.52440242 19.13019092 13.54199613 10.63150988 13.5625 2.1328125 C8.2825 2.1328125 3.0025 2.1328125 -2.4375 2.1328125 C-2.4375 32.1628125 -2.4375 62.1928125 -2.4375 93.1328125 C2.5125 93.1328125 7.4625 93.1328125 12.5625 93.1328125 C12.5625 93.4628125 12.5625 93.7928125 12.5625 94.1328125 C9.75030295 94.32665429 6.93795804 94.51317853 4.125 94.6953125 C2.92133789 94.77942383 2.92133789 94.77942383 1.69335938 94.86523438 C-0.34812111 94.994442 -2.39296369 95.0679398 -4.4375 95.1328125 C-6.30205346 93.26825904 -5.56408685 90.59874902 -5.57302856 88.11759949 C-5.57100433 87.25314713 -5.5689801 86.38869476 -5.56689453 85.49804688 C-5.56864685 84.59242508 -5.57039917 83.68680328 -5.57220459 82.7537384 C-5.57662454 79.74466057 -5.57368461 76.73564098 -5.5703125 73.7265625 C-5.5709855 71.64530425 -5.57195549 69.56404607 -5.57321167 67.48278809 C-5.57468884 63.11465712 -5.57253348 58.74654657 -5.56787109 54.37841797 C-5.5621738 48.76566697 -5.5654527 43.15296378 -5.57144356 37.54021454 C-5.57504866 33.24069861 -5.57391082 28.94119412 -5.57131577 24.64167786 C-5.57064636 22.57151789 -5.5714754 20.5013569 -5.57379532 18.43119812 C-5.57632102 15.54329664 -5.57248242 12.65547372 -5.56689453 9.76757812 C-5.56891876 8.90312576 -5.57094299 8.0386734 -5.57302856 7.14802551 C-5.54729538 0.00757236 -5.54729538 0.00757236 0 0 Z " fill="#2B3343" transform="translate(394.4375,140.8671875)"/>
<path d="M0 0 C2.92937654 1.81310142 5.43647949 3.87295899 7 7 C7.67660495 12.86390959 7.67660495 12.86390959 5.953125 15.7578125 C3.24830146 19.05133293 1.48199038 20.7979104 -2.75 21.375 C-6.22595496 20.97392827 -8.21349823 20.08590906 -10.7890625 17.6875 C-13.14567184 14.40345085 -13.55516213 10.94859063 -13 7 C-10.0085966 1.37943346 -6.25660734 -0.72191623 0 0 Z " fill="#F5F8F6" transform="translate(297,294)"/>
<path d="M0 0 C2.92937654 1.81310142 5.43647949 3.87295899 7 7 C7.5098625 11.4188083 7.29172207 13.50771901 5 17.375 C1.81495991 20.16191008 0.14262325 21.08900932 -4 21.28515625 C-6.81871641 20.88326895 -8.84127076 19.71303927 -10.859375 17.72265625 C-13.0849563 14.36141873 -13.55620557 10.95601214 -13 7 C-10.0085966 1.37943346 -6.25660734 -0.72191623 0 0 Z " fill="#F5F8F6" transform="translate(191,294)"/>
<path d="M0 0 C1.7074998 1.28062485 3.37373596 2.61767557 5 4 C5 4.66 5 5.32 5 6 C-10.18 6 -25.36 6 -41 6 C-41 5.67 -41 5.34 -41 5 C-36.49436109 3.89809875 -32.03092105 3.78198767 -27.41796875 3.68359375 C-26.60378983 3.66281265 -25.7896109 3.64203156 -24.95075989 3.62062073 C-22.36308821 3.55550537 -19.77531947 3.49641792 -17.1875 3.4375 C-15.42772455 3.39427858 -13.66795872 3.35066315 -11.90820312 3.30664062 C-7.60556691 3.1998632 -3.30283357 3.09848982 1 3 C0.505 1.515 0.505 1.515 0 0 Z " fill="#3BA764" transform="translate(234,210)"/>
<path d="M0 0 C0.33 0 0.66 0 1 0 C1.0246519 4.82380802 1.04283693 9.64757967 1.05493164 14.47143555 C1.05997174 16.11369464 1.06680378 17.75594923 1.07543945 19.39819336 C1.08751926 21.75375479 1.09323139 24.10925709 1.09765625 26.46484375 C1.10281754 27.20339096 1.10797882 27.94193817 1.11329651 28.7028656 C1.1134925 30.46898088 1.06194719 32.23497146 1 34 C-0.92578255 35.92578255 -4.32035408 35.17443944 -6.875 35.1875 C-8.13054688 35.20167969 -9.38609375 35.21585937 -10.6796875 35.23046875 C-14 35 -14 35 -17 33 C-16.67 31.68 -16.34 30.36 -16 29 C-15.34 29.33 -14.68 29.66 -14 30 C-14 30.66 -14 31.32 -14 32 C-9.38 32 -4.76 32 0 32 C0 21.44 0 10.88 0 0 Z " fill="#2F3645" transform="translate(636,230)"/>
<path d="M0 0 C0 3.26756556 -0.79757497 4.99393742 -2 8 C-2.42148875 9.92792077 -2.79676438 11.8665317 -3.125 13.8125 C-3.29257812 14.78832031 -3.46015625 15.76414063 -3.6328125 16.76953125 C-3.75398437 17.50558594 -3.87515625 18.24164063 -4 19 C-6.23918648 15.64122028 -6.20525572 14.11650419 -5.625 10.20703125 C-4.53327897 6.35189136 -2.32353324 3.22379519 0 0 Z " fill="#1A2131" transform="translate(789,177)"/>
<path d="M0 0 C0.99 0.33 1.98 0.66 3 1 C3.05395478 2.62463842 3.09277195 4.24978541 3.125 5.875 C3.14820313 6.77992188 3.17140625 7.68484375 3.1953125 8.6171875 C3 11 3 11 1 13 C-0.00496852 9.98509443 -0.10335303 7.95818308 -0.0625 4.8125 C-0.05347656 3.91144531 -0.04445313 3.01039063 -0.03515625 2.08203125 C-0.02355469 1.39496094 -0.01195312 0.70789063 0 0 Z " fill="#303845" transform="translate(532,195)"/>
<path d="M0 0 C0.66 0.33 1.32 0.66 2 1 C1.48050781 1.38671875 0.96101563 1.7734375 0.42578125 2.171875 C-3.4342631 5.05442199 -7.26026958 7.96146903 -11 11 C-11 8 -11 8 -9.609375 6.46484375 C-8.99578125 5.96082031 -8.3821875 5.45679688 -7.75 4.9375 C-7.14671875 4.43089844 -6.5434375 3.92429687 -5.921875 3.40234375 C-3.99415079 1.99573198 -2.21784261 0.88438765 0 0 Z " fill="#3DA967" transform="translate(281,276)"/>
<path d="M0 0 C0.33 0 0.66 0 1 0 C1.33 2.31 1.66 4.62 2 7 C2.99 6.01 3.98 5.02 5 4 C5 6.31 5 8.62 5 11 C3.35 11.33 1.7 11.66 0 12 C0 8.04 0 4.08 0 0 Z " fill="#D2D4D7" transform="translate(526,196)"/>
<path d="M0 0 C0 3 0 3 -1.3125 4.38671875 C-2.875 5.59114583 -4.4375 6.79557292 -6 8 C-6.66 7.67 -7.32 7.34 -8 7 C-5.36 4.69 -2.72 2.38 0 0 Z " fill="#101729" transform="translate(798,168)"/>
</svg>
